<?xml version="1.0" encoding="UTF-8" standalone="no"?>
<!-- Created with Inkscape (http://www.inkscape.org/) -->

<svg
   xmlns:dc="http://purl.org/dc/elements/1.1/"
   xmlns:cc="http://creativecommons.org/ns#"
   xmlns:rdf="http://www.w3.org/1999/02/22-rdf-syntax-ns#"
   xmlns:svg="http://www.w3.org/2000/svg"
   xmlns="http://www.w3.org/2000/svg"
   xmlns:xlink="http://www.w3.org/1999/xlink"
   xmlns:sodipodi="http://sodipodi.sourceforge.net/DTD/sodipodi-0.dtd"
   xmlns:inkscape="http://www.inkscape.org/namespaces/inkscape"
   width="354.33069"
   height="354.33069"
   id="svg2"
   version="1.1"
   inkscape:version="0.91 r13725"
   sodipodi:docname="settings.svg">
  <defs
     id="defs4">
    <linearGradient
       id="linearGradient5213"
       inkscape:collect="always">
      <stop
         id="stop5215"
         offset="0"
         style="stop-color:#000000;stop-opacity:1" />
      <stop
         style="stop-color:#535353;stop-opacity:1"
         offset="0.32482243"
         id="stop5217" />
      <stop
         id="stop5219"
         offset="0.52976692"
         style="stop-color:#000000;stop-opacity:1" />
      <stop
         id="stop5221"
         offset="1"
         style="stop-color:#989898;stop-opacity:1" />
    </linearGradient>
    <linearGradient
       inkscape:collect="always"
       id="linearGradient5155">
      <stop
         style="stop-color:#2a2a2a;stop-opacity:1"
         offset="0"
         id="stop5157" />
      <stop
         id="stop5163"
         offset="0.32482243"
         style="stop-color:#878787;stop-opacity:1" />
      <stop
         style="stop-color:#525252;stop-opacity:1"
         offset="0.52976692"
         id="stop5165" />
      <stop
         style="stop-color:#121212;stop-opacity:1"
         offset="1"
         id="stop5159" />
    </linearGradient>
    <linearGradient
       id="linearGradient5396">
      <stop
         style="stop-color:#cccccc;stop-opacity:1;"
         offset="0"
         id="stop5398" />
      <stop
         style="stop-color:#000000;stop-opacity:1;"
         offset="1"
         id="stop5400" />
    </linearGradient>
    <linearGradient
       id="linearGradient3915">
      <stop
         style="stop-color:#efc0ae;stop-opacity:1;"
         offset="0"
         id="stop3917" />
      <stop
         style="stop-color:#000000;stop-opacity:1;"
         offset="1"
         id="stop3919" />
    </linearGradient>
    <linearGradient
       id="linearGradient3869">
      <stop
         style="stop-color:#000000;stop-opacity:1;"
         offset="0"
         id="stop3871" />
      <stop
         id="stop3911"
         offset="0.5"
         style="stop-color:#7f7f7f;stop-opacity:1;" />
      <stop
         style="stop-color:#ffffff;stop-opacity:1"
         offset="1"
         id="stop3873" />
    </linearGradient>
    <linearGradient
       id="linearGradient3853">
      <stop
         style="stop-color:#000000;stop-opacity:1;"
         offset="0"
         id="stop3855" />
      <stop
         style="stop-color:#000000;stop-opacity:0;"
         offset="1"
         id="stop3857" />
    </linearGradient>
    <linearGradient
       id="linearGradient3843">
      <stop
         style="stop-color:#ffffff;stop-opacity:1;"
         offset="0"
         id="stop3845" />
      <stop
         style="stop-color:#000000;stop-opacity:0;"
         offset="1"
         id="stop3847" />
    </linearGradient>
    <radialGradient
       inkscape:collect="always"
       xlink:href="#linearGradient3869-8"
       id="radialGradient3875-6"
       cx="1344.3741"
       cy="172.5966"
       fx="1344.3741"
       fy="172.5966"
       r="234.99046"
       gradientTransform="matrix(-1.2698354,-0.01203654,0.01853885,-1.9558192,2604.7883,491.70543)"
       gradientUnits="userSpaceOnUse" />
    <linearGradient
       inkscape:collect="always"
       id="linearGradient3869-8">
      <stop
         style="stop-color:#000000;stop-opacity:1;"
         offset="0"
         id="stop3871-8" />
      <stop
         style="stop-color:#000000;stop-opacity:0;"
         offset="1"
         id="stop3873-2" />
    </linearGradient>
    <linearGradient
       inkscape:collect="always"
       xlink:href="#linearGradient5396-6"
       id="linearGradient5404-2"
       x1="256.5"
       y1="796.8609"
       x2="6.5"
       y2="1046.8608"
       gradientUnits="userSpaceOnUse" />
    <linearGradient
       id="linearGradient5396-6">
      <stop
         style="stop-color:#cccccc;stop-opacity:1;"
         offset="0"
         id="stop5398-0" />
      <stop
         style="stop-color:#000000;stop-opacity:1;"
         offset="1"
         id="stop5400-4" />
    </linearGradient>
    <linearGradient
       inkscape:collect="always"
       xlink:href="#linearGradient5396-60"
       id="linearGradient5404-4"
       x1="256.5"
       y1="796.8609"
       x2="6.5"
       y2="1046.8608"
       gradientUnits="userSpaceOnUse" />
    <linearGradient
       id="linearGradient5396-60">
      <stop
         style="stop-color:#cccccc;stop-opacity:1;"
         offset="0"
         id="stop5398-3" />
      <stop
         style="stop-color:#000000;stop-opacity:1;"
         offset="1"
         id="stop5400-6" />
    </linearGradient>
    <linearGradient
       inkscape:collect="always"
       id="linearGradient4299">
      <stop
         style="stop-color:#00ff00;stop-opacity:1"
         offset="0"
         id="stop4301" />
      <stop
         style="stop-color:#000000;stop-opacity:1"
         offset="1"
         id="stop4303" />
    </linearGradient>
    <radialGradient
       inkscape:collect="always"
       xlink:href="#linearGradient4299"
       id="radialGradient4331"
       cx="29.57617"
       cy="732.26361"
       fx="29.57617"
       fy="732.26361"
       r="55.316795"
       gradientTransform="matrix(1.1868822,1.4158066,-1.3166152,1.1037294,958.58212,-118.76018)"
       gradientUnits="userSpaceOnUse" />
    <radialGradient
       inkscape:collect="always"
       xlink:href="#linearGradient4299"
       id="radialGradient4339"
       cx="29.57617"
       cy="732.26361"
       fx="29.57617"
       fy="732.26361"
       r="55.316795"
       gradientTransform="matrix(1.1868822,1.4158066,-1.3166152,1.1037294,958.58212,-118.76018)"
       gradientUnits="userSpaceOnUse" />
    <radialGradient
       inkscape:collect="always"
       xlink:href="#linearGradient4299"
       id="radialGradient4347"
       cx="29.57617"
       cy="732.26361"
       fx="29.57617"
       fy="732.26361"
       r="55.316795"
       gradientTransform="matrix(1.1868822,1.4158066,-1.3166152,1.1037294,958.58212,-118.76018)"
       gradientUnits="userSpaceOnUse" />
    <linearGradient
       inkscape:collect="always"
       xlink:href="#linearGradient5213"
       id="linearGradient5161"
       x1="-12.389629"
       y1="35.263367"
       x2="192.48853"
       y2="114.77769"
       gradientUnits="userSpaceOnUse"
       gradientTransform="matrix(0.84628391,0.30020258,-0.30020258,0.84628391,42.770349,710.50616)" />
    <linearGradient
       inkscape:collect="always"
       xlink:href="#linearGradient5155"
       id="linearGradient5161-5"
       x1="14.17094"
       y1="-28.226606"
       x2="166.48077"
       y2="161.85709"
       gradientUnits="userSpaceOnUse"
       gradientTransform="matrix(0.4791471,0.75943147,-0.75943147,0.4791471,239.32096,821.96466)" />
  </defs>
  <sodipodi:namedview
     id="base"
     pagecolor="#ffffff"
     bordercolor="#666666"
     borderopacity="1.0"
     inkscape:pageopacity="0.0"
     inkscape:pageshadow="2"
     inkscape:zoom="0.2384757"
     inkscape:cx="618.68225"
     inkscape:cy="-71.714256"
     inkscape:document-units="px"
     inkscape:current-layer="g5085"
     showgrid="false"
     units="cm"
     inkscape:object-nodes="true"
     inkscape:snap-smooth-nodes="true"
     inkscape:snap-object-midpoints="true"
     inkscape:window-width="1920"
     inkscape:window-height="1137"
     inkscape:window-x="0"
     inkscape:window-y="0"
     inkscape:window-maximized="1"
     showborder="true"
     inkscape:snap-global="true" />
  <metadata
     id="metadata7">
    <rdf:RDF>
      <cc:Work
         rdf:about="">
        <dc:format>image/svg+xml</dc:format>
        <dc:type
           rdf:resource="http://purl.org/dc/dcmitype/StillImage" />
        <dc:title></dc:title>
      </cc:Work>
    </rdf:RDF>
  </metadata>
  <g
     inkscape:label="Layer 1"
     inkscape:groupmode="layer"
     id="layer1"
     transform="translate(0,-698.03017)">
    <path
       sodipodi:type="star"
       style="fill:none;fill-opacity:1;stroke:#000000;stroke-width:4.5;stroke-linecap:butt;stroke-linejoin:miter;stroke-miterlimit:4;stroke-dasharray:none;stroke-dashoffset:0;stroke-opacity:1"
       id="path5053"
       sodipodi:sides="36"
       sodipodi:cx="2244.498"
       sodipodi:cy="-450.85342"
       sodipodi:r1="1051.0992"
       sodipodi:r2="851.39032"
       sodipodi:arg1="0.74948547"
       sodipodi:arg2="0.83675193"
       inkscape:flatsided="false"
       inkscape:rounded="0"
       inkscape:randomized="0"
       d="m 3013.9442,265.22075 -199.1185,-83.94136 63.0839,206.67551 -181.5172,-117.24267 26.2367,214.49005 -158.4006,-146.98163 -11.4076,215.78743 -130.4711,-172.25462 -48.7054,210.52822 -98.5772,-192.29375 -84.5233,198.87221 -63.6882,-206.49013 -117.773,181.17358 -26.8639,-214.41241 -147.4443,157.97007 10.7765,-215.81988 -172.6354,129.96673 48.0895,-210.66976 -192.5812,98.0144 83.9413,-199.11856 -206.6755,63.08396 117.2427,-181.5172285 -214.4901,26.2367505 146.9817,-158.400602 -215.7875,-11.40765 172.2547,-130.47105 -210.5283,-48.70544 192.2938,-98.57719 -198.8722,-84.52334 206.4901,-63.68813 -181.1736,-117.77303 214.4124,-26.86393 -157.97,-147.44426 215.8198,10.77652 -129.9667,-172.63546 210.6698,48.08953 -98.0144,-192.58123 199.1185,83.9414 -63.0839,-206.6755 181.5172,117.2426 -26.2367,-214.49 158.4006,146.9816 11.4076,-215.7874 130.4711,172.2546 48.7054,-210.5282 98.5772,192.2937 84.5233,-198.8722 63.6882,206.4901 117.773,-181.1735 26.8639,214.4124 147.4443,-157.9701 -10.7765,215.8199 172.6354,-129.9667 -48.0895,210.6697 192.5812,-98.0144 -83.9413,199.1186 206.6755,-63.084 -117.2427,181.51724 214.4901,-26.23675 -146.9817,158.4006 215.7875,11.40765 -172.2547,130.47105 210.5282,48.70544 -192.2937,98.5772 198.8722,84.52333 -206.4901,63.68813 181.1736,117.77303 -214.4124,26.86393 157.97,147.44426 -215.8199,-10.776519 129.9668,172.635459 -210.6698,-48.089523 z"
       inkscape:transform-center-x="-689.17792"
       inkscape:transform-center-y="785.08662"
       transform="matrix(0.9942219,0.10734439,-0.10734439,0.9942219,-5514.795,-2588.0255)" />
    <g
       id="g5081"
       transform="matrix(1.0550078,0,0,1.0550078,-4.5713827,-33.620039)">
      <g
         id="g5085">
        <path
           style="fill:url(#linearGradient5161);fill-opacity:1;fill-rule:evenodd;stroke:none;stroke-width:13.40303802;stroke-linecap:butt;stroke-linejoin:round;stroke-miterlimit:4;stroke-dasharray:none;stroke-opacity:1"
           d="m 144.38371,702.75921 -25.19826,-6.71483 -12.99892,29.13237 -18.093437,2.40789 -20.16428,-24.71965 -22.564248,13.07036 11.407743,29.79021 -11.093592,14.49684 -31.735776,-3.22049 -6.7142509,25.19662 29.1307239,12.99835 2.40732,18.09508 -24.717422,20.1632 13.069745,22.56591 29.790205,-11.40774 14.497443,11.09195 -3.222653,31.73684 25.198261,6.71484 12.998948,-29.13237 18.09509,-2.40733 20.16259,24.7191 22.56591,-13.06976 -11.40775,-29.7902 11.09196,-14.49746 31.73742,3.221 6.71261,-25.19722 -29.13074,-12.99834 -2.40733,-18.09507 24.7191,-20.16263 -13.06974,-22.5659 -29.7902,11.40776 -14.49746,-11.09196 3.22099,-31.73743 z m -24.50266,55.55534 a 38.453623,39.241653 29.877692 0 1 5.95074,2.7604 38.453623,39.241653 29.877692 0 1 13.79527,53.18178 38.453623,39.241653 29.877692 0 1 -52.891171,14.86975 38.453623,39.241653 29.877692 0 1 -13.793603,-53.1812 38.453623,39.241653 29.877692 0 1 46.938744,-17.6307 z"
           id="path5055"
           inkscape:connector-curvature="0" />
        <path
           style="fill:url(#linearGradient5161-5);fill-opacity:1;fill-rule:evenodd;stroke:none;stroke-width:13.40303802;stroke-linecap:butt;stroke-linejoin:round;stroke-miterlimit:4;stroke-dasharray:none;stroke-opacity:1"
           d="m 323.94565,878.74461 -15.64249,-20.86516 -28.23616,14.84547 -15.70469,-9.3023 -0.54835,-31.8961 -25.81379,-3.69143 -9.4682,30.46222 -17.68455,4.52594 -22.94051,-22.16445 -20.86367,15.64156 14.84451,28.23467 -9.30382,15.70565 -31.89364,0.54888 -3.69294,25.8147 30.46225,9.46821 4.52741,17.6836 -22.16686,22.94 15.64249,20.8651 28.23613,-14.84541 15.70562,9.30383 0.54741,31.89461 25.81475,3.6929 9.4682,-30.46219 17.68362,-4.52748 22.94146,22.16597 20.86272,-15.64311 -14.84449,-28.23464 9.30376,-15.70562 31.89461,-0.54739 3.69293,-25.81477 -30.4622,-9.46816 -4.52746,-17.68362 22.16595,-22.94148 z m -53.62137,28.4873 a 38.453623,39.241653 68.097549 0 1 2.96735,5.85032 38.453623,39.241653 68.097549 0 1 -22.06438,50.31672 38.453623,39.241653 68.097549 0 1 -50.75319,-21.04043 38.453623,39.241653 68.097549 0 1 22.06536,-50.31525 38.453623,39.241653 68.097549 0 1 47.78484,15.18865 z"
           id="path5055-7"
           inkscape:connector-curvature="0" />
        <circle
           style="fill:#000000;fill-opacity:1;stroke:none;stroke-width:14.21790409;stroke-linecap:butt;stroke-linejoin:round;stroke-miterlimit:4;stroke-dasharray:none;stroke-dashoffset:0;stroke-opacity:1"
           id="path5229"
           cx="106.28389"
           cy="795.10065"
           r="27.820162" />
        <circle
           style="fill:#000000;fill-opacity:1;stroke:none;stroke-width:14.21790409;stroke-linecap:butt;stroke-linejoin:round;stroke-miterlimit:4;stroke-dasharray:none;stroke-dashoffset:0;stroke-opacity:1"
           id="path5229-2"
           cx="236.88336"
           cy="927.72107"
           r="27.820162" />
      </g>
    </g>
  </g>
</svg>
